<svg id="visual" viewBox="0 0 960 150" width="960" height="150" xmlns="http://www.w3.org/2000/svg" xmlns:xlink="http://www.w3.org/1999/xlink" version="1.1"><rect x="0" y="0" width="960" height="150" fill="#11191f"></rect><path d="M0 32L13.3 33.5C26.7 35 53.3 38 80 38.8C106.7 39.7 133.3 38.3 160 41.3C186.7 44.3 213.3 51.7 240 56.3C266.7 61 293.3 63 320 63.5C346.7 64 373.3 63 400 62.8C426.7 62.7 453.3 63.3 480 57.2C506.7 51 533.3 38 560 39.7C586.7 41.3 613.3 57.7 640 61C666.7 64.3 693.3 54.7 720 59C746.7 63.3 773.3 81.7 800 76.7C826.7 71.7 853.3 43.3 880 38.3C906.7 33.3 933.3 51.7 946.7 60.8L960 70L960 151L946.7 151C933.3 151 906.7 151 880 151C853.3 151 826.7 151 800 151C773.3 151 746.7 151 720 151C693.3 151 666.7 151 640 151C613.3 151 586.7 151 560 151C533.3 151 506.7 151 480 151C453.3 151 426.7 151 400 151C373.3 151 346.7 151 320 151C293.3 151 266.7 151 240 151C213.3 151 186.7 151 160 151C133.3 151 106.7 151 80 151C53.3 151 26.7 151 13.3 151L0 151Z" fill="#11191f"></path><path d="M0 33L13.3 32.2C26.7 31.3 53.3 29.7 80 36.8C106.7 44 133.3 60 160 73.2C186.7 86.3 213.3 96.7 240 94.3C266.7 92 293.3 77 320 64.2C346.7 51.3 373.3 40.7 400 36.7C426.7 32.7 453.3 35.3 480 45C506.7 54.7 533.3 71.3 560 82.7C586.7 94 613.3 100 640 92.3C666.7 84.7 693.3 63.3 720 63.3C746.7 63.3 773.3 84.7 800 90C826.7 95.3 853.3 84.7 880 70.8C906.7 57 933.3 40 946.7 31.5L960 23L960 151L946.7 151C933.3 151 906.7 151 880 151C853.3 151 826.7 151 800 151C773.3 151 746.7 151 720 151C693.3 151 666.7 151 640 151C613.3 151 586.7 151 560 151C533.3 151 506.7 151 480 151C453.3 151 426.7 151 400 151C373.3 151 346.7 151 320 151C293.3 151 266.7 151 240 151C213.3 151 186.7 151 160 151C133.3 151 106.7 151 80 151C53.3 151 26.7 151 13.3 151L0 151Z" fill="#192e3c"></path><path d="M0 62L13.3 65.3C26.7 68.7 53.3 75.3 80 75.3C106.7 75.3 133.3 68.7 160 63.7C186.7 58.7 213.3 55.3 240 64.3C266.7 73.3 293.3 94.7 320 95.2C346.7 95.7 373.3 75.3 400 73.5C426.7 71.7 453.3 88.3 480 95.3C506.7 102.3 533.3 99.7 560 92.8C586.7 86 613.3 75 640 69.5C666.7 64 693.3 64 720 65.5C746.7 67 773.3 70 800 78.2C826.7 86.3 853.3 99.7 880 95C906.7 90.3 933.3 67.7 946.7 56.3L960 45L960 151L946.7 151C933.3 151 906.7 151 880 151C853.3 151 826.7 151 800 151C773.3 151 746.7 151 720 151C693.3 151 666.7 151 640 151C613.3 151 586.7 151 560 151C533.3 151 506.7 151 480 151C453.3 151 426.7 151 400 151C373.3 151 346.7 151 320 151C293.3 151 266.7 151 240 151C213.3 151 186.7 151 160 151C133.3 151 106.7 151 80 151C53.3 151 26.7 151 13.3 151L0 151Z" fill="#1f465b"></path><path d="M0 76L13.3 80.8C26.7 85.7 53.3 95.3 80 93.7C106.7 92 133.3 79 160 82.8C186.7 86.7 213.3 107.3 240 114.7C266.7 122 293.3 116 320 105.5C346.7 95 373.3 80 400 73.3C426.7 66.7 453.3 68.3 480 75.7C506.7 83 533.3 96 560 101.3C586.7 106.7 613.3 104.3 640 106.2C666.7 108 693.3 114 720 109.5C746.7 105 773.3 90 800 84.3C826.7 78.7 853.3 82.3 880 82.3C906.7 82.3 933.3 78.7 946.7 76.8L960 75L960 151L946.7 151C933.3 151 906.7 151 880 151C853.3 151 826.7 151 800 151C773.3 151 746.7 151 720 151C693.3 151 666.7 151 640 151C613.3 151 586.7 151 560 151C533.3 151 506.7 151 480 151C453.3 151 426.7 151 400 151C373.3 151 346.7 151 320 151C293.3 151 266.7 151 240 151C213.3 151 186.7 151 160 151C133.3 151 106.7 151 80 151C53.3 151 26.7 151 13.3 151L0 151Z" fill="#225f7c"></path><path d="M0 86L13.3 88.5C26.7 91 53.3 96 80 98.2C106.7 100.3 133.3 99.7 160 103.2C186.7 106.7 213.3 114.3 240 116.5C266.7 118.7 293.3 115.3 320 110.5C346.7 105.7 373.3 99.3 400 103.8C426.7 108.3 453.3 123.7 480 126.2C506.7 128.7 533.3 118.3 560 113.3C586.7 108.3 613.3 108.7 640 108.5C666.7 108.3 693.3 107.7 720 111.8C746.7 116 773.3 125 800 128.5C826.7 132 853.3 130 880 129.5C906.7 129 933.3 130 946.7 130.5L960 131L960 151L946.7 151C933.3 151 906.7 151 880 151C853.3 151 826.7 151 800 151C773.3 151 746.7 151 720 151C693.3 151 666.7 151 640 151C613.3 151 586.7 151 560 151C533.3 151 506.7 151 480 151C453.3 151 426.7 151 400 151C373.3 151 346.7 151 320 151C293.3 151 266.7 151 240 151C213.3 151 186.7 151 160 151C133.3 151 106.7 151 80 151C53.3 151 26.7 151 13.3 151L0 151Z" fill="#1f799e"></path><path d="M0 135L13.3 133.8C26.7 132.7 53.3 130.3 80 127.5C106.7 124.7 133.3 121.3 160 122.7C186.7 124 213.3 130 240 133.7C266.7 137.3 293.3 138.7 320 138.3C346.7 138 373.3 136 400 135.7C426.7 135.3 453.3 136.7 480 133.5C506.7 130.3 533.3 122.7 560 118.7C586.7 114.7 613.3 114.3 640 117.3C666.7 120.3 693.3 126.7 720 127.2C746.7 127.7 773.3 122.3 800 120.2C826.7 118 853.3 119 880 117.5C906.7 116 933.3 112 946.7 110L960 108L960 151L946.7 151C933.3 151 906.7 151 880 151C853.3 151 826.7 151 800 151C773.3 151 746.7 151 720 151C693.3 151 666.7 151 640 151C613.3 151 586.7 151 560 151C533.3 151 506.7 151 480 151C453.3 151 426.7 151 400 151C373.3 151 346.7 151 320 151C293.3 151 266.7 151 240 151C213.3 151 186.7 151 160 151C133.3 151 106.7 151 80 151C53.3 151 26.7 151 13.3 151L0 151Z" fill="#1095c1"></path></svg>