<svg id="visual" viewBox="0 0 960 200" width="960" height="200" xmlns="http://www.w3.org/2000/svg" xmlns:xlink="http://www.w3.org/1999/xlink" version="1.1"><rect x="0" y="0" width="960" height="200" fill="#11191f"></rect><path d="M0 33L13.3 44.5C26.7 56 53.3 79 80 91.2C106.7 103.3 133.3 104.7 160 99C186.7 93.3 213.3 80.7 240 76C266.7 71.3 293.3 74.7 320 76.2C346.7 77.7 373.3 77.3 400 78.2C426.7 79 453.3 81 480 77.8C506.7 74.7 533.3 66.3 560 65.5C586.7 64.7 613.3 71.3 640 79.5C666.7 87.7 693.3 97.3 720 96C746.7 94.7 773.3 82.3 800 80.5C826.7 78.7 853.3 87.3 880 91.8C906.7 96.3 933.3 96.7 946.7 96.8L960 97L960 0L946.7 0C933.3 0 906.7 0 880 0C853.3 0 826.7 0 800 0C773.3 0 746.7 0 720 0C693.3 0 666.7 0 640 0C613.3 0 586.7 0 560 0C533.3 0 506.7 0 480 0C453.3 0 426.7 0 400 0C373.3 0 346.7 0 320 0C293.3 0 266.7 0 240 0C213.3 0 186.7 0 160 0C133.3 0 106.7 0 80 0C53.3 0 26.7 0 13.3 0L0 0Z" fill="#11191f"></path><path d="M0 83L13.3 77.2C26.7 71.3 53.3 59.7 80 53.2C106.7 46.7 133.3 45.3 160 48.7C186.7 52 213.3 60 240 58C266.7 56 293.3 44 320 41.8C346.7 39.7 373.3 47.3 400 47.8C426.7 48.3 453.3 41.7 480 46.2C506.7 50.7 533.3 66.3 560 75.2C586.7 84 613.3 86 640 78.2C666.7 70.3 693.3 52.7 720 47.8C746.7 43 773.3 51 800 58.3C826.7 65.7 853.3 72.3 880 76C906.7 79.7 933.3 80.3 946.7 80.7L960 81L960 0L946.7 0C933.3 0 906.7 0 880 0C853.3 0 826.7 0 800 0C773.3 0 746.7 0 720 0C693.3 0 666.7 0 640 0C613.3 0 586.7 0 560 0C533.3 0 506.7 0 480 0C453.3 0 426.7 0 400 0C373.3 0 346.7 0 320 0C293.3 0 266.7 0 240 0C213.3 0 186.7 0 160 0C133.3 0 106.7 0 80 0C53.3 0 26.7 0 13.3 0L0 0Z" fill="#2f373d"></path><path d="M0 41L13.3 46.8C26.7 52.7 53.3 64.3 80 69C106.7 73.7 133.3 71.3 160 67.2C186.7 63 213.3 57 240 50.5C266.7 44 293.3 37 320 36.2C346.7 35.3 373.3 40.7 400 40.3C426.7 40 453.3 34 480 34.3C506.7 34.7 533.3 41.3 560 48.3C586.7 55.3 613.3 62.7 640 62.2C666.7 61.7 693.3 53.3 720 54.7C746.7 56 773.3 67 800 63.3C826.7 59.7 853.3 41.3 880 39.2C906.7 37 933.3 51 946.7 58L960 65L960 0L946.7 0C933.3 0 906.7 0 880 0C853.3 0 826.7 0 800 0C773.3 0 746.7 0 720 0C693.3 0 666.7 0 640 0C613.3 0 586.7 0 560 0C533.3 0 506.7 0 480 0C453.3 0 426.7 0 400 0C373.3 0 346.7 0 320 0C293.3 0 266.7 0 240 0C213.3 0 186.7 0 160 0C133.3 0 106.7 0 80 0C53.3 0 26.7 0 13.3 0L0 0Z" fill="#4f585e"></path><path d="M0 25L13.3 27.2C26.7 29.3 53.3 33.7 80 40.7C106.7 47.7 133.3 57.3 160 56.3C186.7 55.3 213.3 43.7 240 43.5C266.7 43.3 293.3 54.7 320 59C346.7 63.3 373.3 60.7 400 54.7C426.7 48.7 453.3 39.3 480 33.7C506.7 28 533.3 26 560 30.8C586.7 35.7 613.3 47.3 640 50.8C666.7 54.3 693.3 49.7 720 42.3C746.7 35 773.3 25 800 20C826.7 15 853.3 15 880 14.7C906.7 14.3 933.3 13.7 946.7 13.3L960 13L960 0L946.7 0C933.3 0 906.7 0 880 0C853.3 0 826.7 0 800 0C773.3 0 746.7 0 720 0C693.3 0 666.7 0 640 0C613.3 0 586.7 0 560 0C533.3 0 506.7 0 480 0C453.3 0 426.7 0 400 0C373.3 0 346.7 0 320 0C293.3 0 266.7 0 240 0C213.3 0 186.7 0 160 0C133.3 0 106.7 0 80 0C53.3 0 26.7 0 13.3 0L0 0Z" fill="#717b81"></path><path d="M0 38L13.3 36C26.7 34 53.3 30 80 25.2C106.7 20.3 133.3 14.7 160 18.7C186.7 22.7 213.3 36.3 240 38.7C266.7 41 293.3 32 320 27.5C346.7 23 373.3 23 400 20.2C426.7 17.3 453.3 11.7 480 13.8C506.7 16 533.3 26 560 26.8C586.7 27.7 613.3 19.3 640 15.8C666.7 12.3 693.3 13.7 720 19.7C746.7 25.7 773.3 36.3 800 37.5C826.7 38.7 853.3 30.3 880 26.5C906.7 22.7 933.3 23.3 946.7 23.7L960 24L960 0L946.7 0C933.3 0 906.7 0 880 0C853.3 0 826.7 0 800 0C773.3 0 746.7 0 720 0C693.3 0 666.7 0 640 0C613.3 0 586.7 0 560 0C533.3 0 506.7 0 480 0C453.3 0 426.7 0 400 0C373.3 0 346.7 0 320 0C293.3 0 266.7 0 240 0C213.3 0 186.7 0 160 0C133.3 0 106.7 0 80 0C53.3 0 26.7 0 13.3 0L0 0Z" fill="#96a0a6"></path><path d="M0 4L13.3 7.7C26.7 11.3 53.3 18.7 80 19.7C106.7 20.7 133.3 15.3 160 14.2C186.7 13 213.3 16 240 14.3C266.7 12.7 293.3 6.3 320 4.3C346.7 2.3 373.3 4.7 400 9C426.7 13.3 453.3 19.7 480 19.3C506.7 19 533.3 12 560 9.3C586.7 6.7 613.3 8.3 640 8.8C666.7 9.3 693.3 8.7 720 12.3C746.7 16 773.3 24 800 26.8C826.7 29.7 853.3 27.3 880 23.5C906.7 19.7 933.3 14.3 946.7 11.7L960 9L960 0L946.7 0C933.3 0 906.7 0 880 0C853.3 0 826.7 0 800 0C773.3 0 746.7 0 720 0C693.3 0 666.7 0 640 0C613.3 0 586.7 0 560 0C533.3 0 506.7 0 480 0C453.3 0 426.7 0 400 0C373.3 0 346.7 0 320 0C293.3 0 266.7 0 240 0C213.3 0 186.7 0 160 0C133.3 0 106.7 0 80 0C53.3 0 26.7 0 13.3 0L0 0Z" fill="#bcc6cc"></path></svg>