<svg id="visual" viewBox="0 0 960 340" width="960" height="340" xmlns="http://www.w3.org/2000/svg" xmlns:xlink="http://www.w3.org/1999/xlink" version="1.1"><rect x="0" y="0" width="960" height="40" fill="#11191f"></rect><path d="M0 323L22.8 335.3C45.7 347.7 91.3 372.3 137 383.7C182.7 395 228.3 393 274 385.2C319.7 377.3 365.3 363.7 411.2 353.8C457 344 503 338 548.8 344.2C594.7 350.3 640.3 368.7 686 373.8C731.7 379 777.3 371 823 363.5C868.7 356 914.3 349 937.2 345.5L960 342L960 541L937.2 541C914.3 541 868.7 541 823 541C777.3 541 731.7 541 686 541C640.3 541 594.7 541 548.8 541C503 541 457 541 411.2 541C365.3 541 319.7 541 274 541C228.3 541 182.7 541 137 541C91.3 541 45.7 541 22.8 541L0 541Z" fill="#11191f"></path><path d="M0 354L22.8 361.5C45.7 369 91.3 384 137 384.7C182.7 385.3 228.3 371.7 274 375.8C319.7 380 365.3 402 411.2 409.3C457 416.7 503 409.3 548.8 408.8C594.7 408.3 640.3 414.7 686 417.7C731.7 420.7 777.3 420.3 823 409.7C868.7 399 914.3 378 937.2 367.5L960 357L960 541L937.2 541C914.3 541 868.7 541 823 541C777.3 541 731.7 541 686 541C640.3 541 594.7 541 548.8 541C503 541 457 541 411.2 541C365.3 541 319.7 541 274 541C228.3 541 182.7 541 137 541C91.3 541 45.7 541 22.8 541L0 541Z" fill="#1b3443"></path><path d="M0 447L22.8 448.3C45.7 449.7 91.3 452.3 137 447.2C182.7 442 228.3 429 274 425.2C319.7 421.3 365.3 426.7 411.2 432.3C457 438 503 444 548.8 438.3C594.7 432.7 640.3 415.3 686 408.8C731.7 402.3 777.3 406.7 823 412.8C868.7 419 914.3 427 937.2 431L960 435L960 541L937.2 541C914.3 541 868.7 541 823 541C777.3 541 731.7 541 686 541C640.3 541 594.7 541 548.8 541C503 541 457 541 411.2 541C365.3 541 319.7 541 274 541C228.3 541 182.7 541 137 541C91.3 541 45.7 541 22.8 541L0 541Z" fill="#21526b"></path><path d="M0 438L22.8 445.3C45.7 452.7 91.3 467.3 137 471C182.7 474.7 228.3 467.3 274 466C319.7 464.7 365.3 469.3 411.2 471.2C457 473 503 472 548.8 465.7C594.7 459.3 640.3 447.7 686 444.2C731.7 440.7 777.3 445.3 823 450.5C868.7 455.7 914.3 461.3 937.2 464.2L960 467L960 541L937.2 541C914.3 541 868.7 541 823 541C777.3 541 731.7 541 686 541C640.3 541 594.7 541 548.8 541C503 541 457 541 411.2 541C365.3 541 319.7 541 274 541C228.3 541 182.7 541 137 541C91.3 541 45.7 541 22.8 541L0 541Z" fill="#207395"></path><path d="M0 486L22.8 484.7C45.7 483.3 91.3 480.7 137 481.7C182.7 482.7 228.3 487.3 274 490.7C319.7 494 365.3 496 411.2 499.2C457 502.3 503 506.7 548.8 505.5C594.7 504.3 640.3 497.7 686 493.3C731.7 489 777.3 487 823 486C868.7 485 914.3 485 937.2 485L960 485L960 541L937.2 541C914.3 541 868.7 541 823 541C777.3 541 731.7 541 686 541C640.3 541 594.7 541 548.8 541C503 541 457 541 411.2 541C365.3 541 319.7 541 274 541C228.3 541 182.7 541 137 541C91.3 541 45.7 541 22.8 541L0 541Z" fill="#1095c1"></path></svg>