<svg id="visual" viewBox="0 0 960 250" width="960" height="250" xmlns="http://www.w3.org/2000/svg" xmlns:xlink="http://www.w3.org/1999/xlink" version="1.1"><path d="M0 167L14.5 173.2C29 179.3 58 191.7 87.2 197.5C116.3 203.3 145.7 202.7 174.8 193.5C204 184.3 233 166.7 262 162.5C291 158.3 320 167.7 349 176.2C378 184.7 407 192.3 436.2 194.7C465.3 197 494.7 194 523.8 185.5C553 177 582 163 611 161.2C640 159.3 669 169.7 698 175.7C727 181.7 756 183.3 785.2 179.7C814.3 176 843.7 167 872.8 169.2C902 171.3 931 184.7 945.5 191.3L960 198L960 251L945.5 251C931 251 902 251 872.8 251C843.7 251 814.3 251 785.2 251C756 251 727 251 698 251C669 251 640 251 611 251C582 251 553 251 523.8 251C494.7 251 465.3 251 436.2 251C407 251 378 251 349 251C320 251 291 251 262 251C233 251 204 251 174.8 251C145.7 251 116.3 251 87.2 251C58 251 29 251 14.5 251L0 251Z" fill="#192e3c"></path><path d="M0 179L14.5 183.5C29 188 58 197 87.2 202.2C116.3 207.3 145.7 208.7 174.8 210.2C204 211.7 233 213.3 262 214.8C291 216.3 320 217.7 349 210.7C378 203.7 407 188.3 436.2 183.8C465.3 179.3 494.7 185.7 523.8 188.5C553 191.3 582 190.7 611 194.3C640 198 669 206 698 210.5C727 215 756 216 785.2 212.8C814.3 209.7 843.7 202.3 872.8 196.2C902 190 931 185 945.5 182.5L960 180L960 251L945.5 251C931 251 902 251 872.8 251C843.7 251 814.3 251 785.2 251C756 251 727 251 698 251C669 251 640 251 611 251C582 251 553 251 523.8 251C494.7 251 465.3 251 436.2 251C407 251 378 251 349 251C320 251 291 251 262 251C233 251 204 251 174.8 251C145.7 251 116.3 251 87.2 251C58 251 29 251 14.5 251L0 251Z" fill="#1f465b"></path><path d="M0 198L14.5 199.7C29 201.3 58 204.7 87.2 208.8C116.3 213 145.7 218 174.8 216.2C204 214.3 233 205.7 262 202.2C291 198.7 320 200.3 349 201.5C378 202.7 407 203.3 436.2 200.8C465.3 198.3 494.7 192.7 523.8 191.8C553 191 582 195 611 195C640 195 669 191 698 194.5C727 198 756 209 785.2 213.8C814.3 218.7 843.7 217.3 872.8 217.5C902 217.7 931 219.3 945.5 220.2L960 221L960 251L945.5 251C931 251 902 251 872.8 251C843.7 251 814.3 251 785.2 251C756 251 727 251 698 251C669 251 640 251 611 251C582 251 553 251 523.8 251C494.7 251 465.3 251 436.2 251C407 251 378 251 349 251C320 251 291 251 262 251C233 251 204 251 174.8 251C145.7 251 116.3 251 87.2 251C58 251 29 251 14.5 251L0 251Z" fill="#225f7c"></path><path d="M0 220L14.5 220.2C29 220.3 58 220.7 87.2 218.5C116.3 216.3 145.7 211.7 174.8 208.8C204 206 233 205 262 208.2C291 211.3 320 218.7 349 224.2C378 229.7 407 233.3 436.2 234.7C465.3 236 494.7 235 523.8 230.3C553 225.7 582 217.3 611 211.8C640 206.3 669 203.7 698 205.7C727 207.7 756 214.3 785.2 217.5C814.3 220.7 843.7 220.3 872.8 220C902 219.7 931 219.3 945.5 219.2L960 219L960 251L945.5 251C931 251 902 251 872.8 251C843.7 251 814.3 251 785.2 251C756 251 727 251 698 251C669 251 640 251 611 251C582 251 553 251 523.8 251C494.7 251 465.3 251 436.2 251C407 251 378 251 349 251C320 251 291 251 262 251C233 251 204 251 174.8 251C145.7 251 116.3 251 87.2 251C58 251 29 251 14.5 251L0 251Z" fill="#1f799e"></path><path d="M0 235L14.5 234.7C29 234.3 58 233.7 87.2 235C116.3 236.3 145.7 239.7 174.8 239.2C204 238.7 233 234.3 262 232.3C291 230.3 320 230.7 349 231.8C378 233 407 235 436.2 236.7C465.3 238.3 494.7 239.7 523.8 240.8C553 242 582 243 611 242.7C640 242.3 669 240.7 698 240.5C727 240.3 756 241.7 785.2 243C814.3 244.3 843.7 245.7 872.8 244.2C902 242.7 931 238.3 945.5 236.2L960 234L960 251L945.5 251C931 251 902 251 872.8 251C843.7 251 814.3 251 785.2 251C756 251 727 251 698 251C669 251 640 251 611 251C582 251 553 251 523.8 251C494.7 251 465.3 251 436.2 251C407 251 378 251 349 251C320 251 291 251 262 251C233 251 204 251 174.8 251C145.7 251 116.3 251 87.2 251C58 251 29 251 14.5 251L0 251Z" fill="#1095c1"></path></svg>